# xmcd
#
# Track frame offsets:
#	150
#	16078
#	27891
#	42893
#	52088
#	66139
#	77330
#	89166
#	101778
#	114273
#	126628
#	141669
#	153655
#	167934
#	182178
#	196833
#	209860
#	224250
#
# Disc length: 3163 seconds
#
# Revision: 1
# Processed by: cddbd v1.5.1PL2 Copyright (c) Steve Scherf et al.
# Submitted via: audiograbber 1.83.01
#
DISCID=130c5912
DTITLE=Ella Fitzgerald - Dedicated to You, cd2
DYEAR=2004
DGENRE=Blues
TTITLE0=How high the moon
TTITLE1=Its only a paper moon
TTITLE2=Love and kisses
TTITLE3=Thou swell
TTITLE4=A kiss goodnight
TTITLE5=Flying home
TTITLE6=Petootie pie
TTITLE7=Ella
TTITLE8=Big boy blue
TTITLE9=Billy
TTITLE10=Im just a jitterbug
TTITLE11=When my sugar walks down the street
TTITLE12=Coochi coochi coo
TTITLE13=Lousville k-y
TTITLE14=Dipsy doodle
TTITLE15=Woe is me
TTITLE16=Youre gonna lose your gal
TTITLE17=This love of mine
EXTD=
EXTT0=
EXTT1=
EXTT2=
EXTT3=
EXTT4=
EXTT5=
EXTT6=
EXTT7=
EXTT8=
EXTT9=
EXTT10=
EXTT11=
EXTT12=
EXTT13=
EXTT14=
EXTT15=
EXTT16=
EXTT17=
PLAYORDER=
